<?xml version="1.0" standalone="no"?>
<!DOCTYPE svg PUBLIC "-//W3C//DTD SVG 1.1//EN"
  "http://www.w3.org/Graphics/SVG/1.1/DTD/svg11.dtd">
<svg width="215mm" height="124.99999237060544mm" viewBox="136.58999633789062 117.65000152587888 215 124.99999237060544" xmlns="http://www.w3.org/2000/svg" version="1.1">
	<title>svgOutput</title>
	<desc>made with tinkercad</desc>
<path d="M 144.03099060058594 118.65000152587888 L 144.27699279785156 118.65000152587888 L 144.28700256347656 118.65000152587888 L 144.30299377441406 118.65000152587888 L 149.73599243164062 118.65000152587888 L 149.7519989013672 118.65000152587888 L 221.79600524902344 118.65000152587888 L 229.9239959716797 118.65000152587888 L 233.19200134277344 118.65000152587888 L 235.3730010986328 118.65000152587888 L 246.26800537109375 118.65000152587888 L 251.7169952392578 118.65000152587888 L 338.47198486328125 118.65000152587888 L 343.9020080566406 118.65000152587888 L 343.9200134277344 118.65000152587888 L 343.9209899902344 118.65000152587888 L 344.1490173339844 118.65000152587888 L 344.1983337402344 118.69899749755857 L 344.2839050292969 118.78399658203122 L 346.1795654296875 120.6669998168945 L 346.32147216796875 120.80796051025388 L 346.3456726074219 120.83200073242185 L 346.5740051269531 121.05879974365232 L 346.8181457519531 121.30131530761716 L 347.0537109375 121.53531646728513 L 347.27520751953125 121.75533294677732 L 347.46563720703125 121.94448089599607 L 347.81427001953125 122.29079437255857 L 348.1600036621094 122.63421630859372 L 348.4074401855469 122.87999725341794 L 350.4692077636719 124.92800140380857 L 350.5899963378906 125.04799652099607 L 350.5899963378906 125.53800201416013 L 350.5899963378906 126.97599792480466 L 350.5899963378906 130.67500305175778 L 350.5899963378906 131.0720062255859 L 350.5899963378906 147.45599365234372 L 350.5899963378906 163.8399963378906 L 350.5899963378906 180.22399902343747 L 350.5899963378906 196.60800170898432 L 350.5899963378906 212.9920043945312 L 350.5899963378906 229.37600708007807 L 350.5899963378906 233.47200012207026 L 350.5899963378906 234.97700500488276 L 350.5899963378906 234.97799682617182 L 350.5899963378906 235.25399780273432 L 350.58697509765625 235.25399780273432 L 350.3191833496094 235.52000427246088 L 350.0920104980469 235.74568176269526 L 348.9949035644531 236.83544921874994 L 348.8311462402344 236.99812316894526 L 348.719482421875 237.10903930664057 L 348.7126770019531 237.1157836914062 L 348.2574157714844 237.56799316406244 L 348.1600036621094 237.66477966308588 L 346.1956787109375 239.61599731445307 L 346.0751647949219 239.73568725585932 L 345.68426513671875 240.12399291992182 L 344.6463317871094 241.15499877929682 L 344.14801025390625 241.64999389648432 L 344.0639953613281 241.64999389648432 L 343.9020080566406 241.64999389648432 L 335.87200927734375 241.64999389648432 L 327.67999267578125 241.64999389648432 L 319.4880065917969 241.64999389648432 L 311.2959899902344 241.64999389648432 L 303.10400390625 241.64999389648432 L 294.9119873046875 241.64999389648432 L 286.7200012207031 241.64999389648432 L 278.52801513671875 241.64999389648432 L 270.33599853515625 241.64999389648432 L 262.1440124511719 241.64999389648432 L 253.95199584960938 241.64999389648432 L 245.75999450683594 241.64999389648432 L 237.5679931640625 241.64999389648432 L 229.37600708007812 241.64999389648432 L 221.1840057373047 241.64999389648432 L 212.99200439453125 241.64999389648432 L 196.60800170898438 241.64999389648432 L 188.41600036621094 241.64999389648432 L 180.2239990234375 241.64999389648432 L 172.03199768066406 241.64999389648432 L 163.83999633789062 241.64999389648432 L 155.6479949951172 241.64999389648432 L 147.45599365234375 241.64999389648432 L 144.28700256347656 241.64999389648432 L 144.27699279785156 241.64999389648432 L 144.03199768066406 241.64999389648432 L 143.53359985351562 241.15499877929682 L 143.36000061035156 240.98258972167963 L 142.2238311767578 239.85417175292963 L 142.11117553710938 239.74229431152338 L 142.10427856445312 239.73544311523432 L 139.92193603515625 237.56799316406244 L 139.46791076660156 237.1170806884765 L 139.26400756835938 236.914566040039 L 139.0760040283203 236.7278442382812 L 138.08799743652344 235.746597290039 L 137.58999633789062 235.25199890136713 L 137.58999633789062 235.0079956054687 L 137.58999633789062 229.37600708007807 L 137.58999633789062 221.18400573730463 L 137.58999633789062 212.9920043945312 L 137.58999633789062 196.60800170898432 L 137.58999633789062 180.22399902343747 L 137.58999633789062 163.8399963378906 L 137.58999633789062 155.64799499511716 L 137.58999633789062 147.45599365234372 L 137.58999633789062 139.26400756835935 L 137.58999633789062 131.0720062255859 L 137.58999633789062 125.53800201416013 L 137.58999633789062 125.047004699707 L 138.08799743652344 124.55240631103513 L 139.0760040283203 123.57115173339841 L 139.217041015625 123.43107604980466 L 139.26400756835938 123.38443756103513 L 139.71710205078125 122.93442535400388 L 139.77191162109375 122.87999725341794 L 140.17376708984375 122.48088073730466 L 140.36672973632812 122.28923797607419 L 140.7101287841797 121.94818115234372 L 141.833984375 120.83200073242185 L 143.36000061035156 119.3164138793945 L 143.98165893554688 118.69899749755857 L 144.03099060058594 118.65000152587888 z" fill="none" stroke="rgb(255,0,0)" stroke-width="0.001mm" />
</svg>