<?xml version="1.0" standalone="no"?>
<!DOCTYPE svg PUBLIC "-//W3C//DTD SVG 1.1//EN"
  "http://www.w3.org/Graphics/SVG/1.1/DTD/svg11.dtd">
<svg width="217mm" height="127mm" viewBox="135 -352.99999999999994 217 127" xmlns="http://www.w3.org/2000/svg" version="1.1">
	<title>svgOutput</title>
	<desc>made with tinkercad</desc>
<path d="M 351 -233.49999999999994 L 350.9989929199219 -233.49999999999994 L 345 -227.50100708007807 L 344.4989929199219 -226.99999999999994 L 344 -226.99999999999994 L 340 -226.99999999999994 L 251 -226.99999999999994 L 246.76199340820312 -226.99999999999994 L 246.1699981689453 -226.99999999999994 L 246 -226.99999999999994 L 228.58700561523438 -226.99999999999994 L 149.75999450683594 -226.99999999999994 L 143 -226.99999999999994 L 142.5019989013672 -226.99999999999994 L 136 -233.50199890136713 L 136 -233.99999999999994 L 136 -345.24999999999994 L 136 -345.4970092773437 L 142.5019989013672 -351.99999999999994 L 143 -351.99999999999994 L 149.75999450683594 -351.99999999999994 L 151.75999450683594 -351.99999999999994 L 155.6479949951172 -351.99999999999994 L 156.75999450683594 -351.99999999999994 L 163.83999633789062 -351.99999999999994 L 180.2239990234375 -351.99999999999994 L 196.60800170898438 -351.99999999999994 L 226.33999633789062 -351.99999999999994 L 228.58700561523438 -351.99999999999994 L 229.17799377441406 -351.99999999999994 L 229.37600708007812 -351.99999999999994 L 233.5 -351.99999999999994 L 236.82899475097656 -351.99999999999994 L 237.5679931640625 -351.99999999999994 L 245.75999450683594 -351.99999999999994 L 246 -351.99999999999994 L 246.1699981689453 -351.99999999999994 L 246.76199340820312 -351.99999999999994 L 251 -351.99999999999994 L 253.105224609375 -351.99999999999994 L 253.33197021484375 -351.99999999999994 L 253.95199584960938 -351.99999999999994 L 257.690673828125 -351.99999999999994 L 257.78802490234375 -351.99999999999994 L 258.0480041503906 -351.99999999999994 L 258.129638671875 -351.99999999999994 L 262.1440124511719 -351.99999999999994 L 278.52801513671875 -351.99999999999994 L 294.9119873046875 -351.99999999999994 L 311.2959899902344 -351.99999999999994 L 327.67999267578125 -351.99999999999994 L 340 -351.99999999999994 L 344 -351.99999999999994 L 344.0639953613281 -351.99999999999994 L 344.4989929199219 -351.99999999999994 L 345 -351.49893188476557 L 351 -345.4979858398437 L 351 -345.2999877929687 L 351 -344.06399536132807 L 351 -335.8720092773437 L 351 -331.77600097656244 L 351 -329.7279968261718 L 351 -328.10183715820307 L 351 -328.0092468261718 L 351 -327.6799926757812 L 351 -324.2529907226562 L 351 -324.2247009277343 L 351 -324.22033691406244 L 351 -324.1565551757812 L 351 -324.14086914062494 L 351 -323.58401489257807 L 351 -320.5650024414062 L 351 -319.08898925781244 L 351 -233.99999999999994 L 351 -233.50100708007807 L 351 -233.49999999999994 M 330.9490051269531 -305.6220092773437 L 329.9200134277344 -305.9880065917968 L 328.86199951171875 -306.2590026855468 L 327.7829895019531 -306.43200683593744 L 327.67999267578125 -306.43908691406244 L 326.6940002441406 -306.50698852539057 L 325.60101318359375 -306.4819946289062 L 324.5159912109375 -306.3580017089843 L 323.5840148925781 -306.16445922851557 L 323.4469909667969 -306.13598632812494 L 322.4020080566406 -305.8169860839843 L 321.3900146484375 -305.4049987792968 L 320.4200134277344 -304.90200805664057 L 319.5 -304.31399536132807 L 319.4880065917969 -304.30468749999994 L 318.6369934082031 -303.6440124511718 L 318.0593566894531 -303.10400390624994 L 317.8389892578125 -302.8980102539062 L 317.11199951171875 -302.08300781249994 L 316.4620056152344 -301.20498657226557 L 315.8940124511719 -300.27200317382807 L 315.41400146484375 -299.2909851074218 L 315.3061828613281 -299.0079956054687 L 315.0249938964844 -298.2699890136718 L 314.7300109863281 -297.2179870605468 L 314.5320129394531 -296.1440124511718 L 314.4330139160156 -295.0559997558593 L 314.4330139160156 -294.91198730468744 L 314.4330139160156 -293.96398925781244 L 314.5320129394531 -292.87600708007807 L 314.7300109863281 -291.80200195312494 L 315.0065002441406 -290.8160095214843 L 315.0249938964844 -290.74999999999994 L 315.41400146484375 -289.72900390624994 L 315.8940124511719 -288.7479858398437 L 316.4620056152344 -287.8150024414062 L 317.11199951171875 -286.93701171874994 L 317.3055725097656 -286.72000122070307 L 317.8389892578125 -286.1220092773437 L 318.6369934082031 -285.37600708007807 L 319.4880065917969 -284.7153015136718 L 319.5 -284.7059936523437 L 320.4200134277344 -284.1180114746093 L 321.3900146484375 -283.61499023437494 L 322.4020080566406 -283.20300292968744 L 323.4469909667969 -282.8840026855468 L 324.5159912109375 -282.66198730468744 L 325.60101318359375 -282.53799438476557 L 326.6940002441406 -282.5130004882812 L 327.67999267578125 -282.5809020996093 L 327.7829895019531 -282.58801269531244 L 328.0075378417969 -282.6239929199218 L 328.86199951171875 -282.76098632812494 L 329.9200134277344 -283.03201293945307 L 330.9490051269531 -283.39700317382807 L 331.7760009765625 -283.77880859374994 L 331.9410095214844 -283.85501098632807 L 332.8869934082031 -284.40100097656244 L 333.7799987792969 -285.03100585937494 L 334.6109924316406 -285.73999023437494 L 335.375 -286.52099609374994 L 335.536865234375 -286.72000122070307 L 335.87200927734375 -287.13195800781244 L 336.0639953613281 -287.3680114746093 L 336.6730041503906 -288.2749938964843 L 337.197998046875 -289.2330017089843 L 337.63299560546875 -290.23498535156244 L 337.8246154785156 -290.8160095214843 L 337.9750061035156 -291.27200317382807 L 338.22198486328125 -292.3370056152343 L 338.3710021972656 -293.4190063476562 L 338.4200134277344 -294.51000976562494 L 338.4019470214844 -294.91198730468744 L 338.3710021972656 -295.6010131835937 L 338.22198486328125 -296.68301391601557 L 337.9750061035156 -297.7470092773437 L 337.63299560546875 -298.7850036621093 L 337.53619384765625 -299.0079956054687 L 337.197998046875 -299.78698730468744 L 336.6730041503906 -300.74499511718744 L 336.0639953613281 -301.65100097656244 L 335.87200927734375 -301.8872985839843 L 335.375 -302.4989929199218 L 334.7831726074219 -303.10400390624994 L 334.6109924316406 -303.2799987792968 L 333.7799987792969 -303.9880065917968 L 332.8869934082031 -304.6180114746093 L 331.9410095214844 -305.1650085449218 L 331.7760009765625 -305.2410278320312 L 330.9490051269531 -305.6220092773437 M 326.8299865722656 -314.95498657226557 L 327.67999267578125 -314.6089477539062 L 327.8420104980469 -314.54299926757807 L 328.8869934082031 -314.22399902343744 L 329.95599365234375 -314.0020141601562 L 331.0409851074219 -313.8779907226562 L 331.7760009765625 -313.8611755371093 L 332.1340026855469 -313.8529968261718 L 333.2229919433594 -313.92800903320307 L 334.302001953125 -314.1010131835937 L 335.3599853515625 -314.3720092773437 L 335.87200927734375 -314.55361938476557 L 336.3890075683594 -314.7369995117187 L 337.3810119628906 -315.1950073242187 L 337.7223205566406 -315.39199829101557 L 338.3269958496094 -315.74099731445307 L 339.2200012207031 -316.37100219726557 L 339.9679870605469 -317.00918579101557 L 340 -317.03649902343744 L 340.0509948730469 -317.07998657226557 L 340.81500244140625 -317.86099243164057 L 341.5039978027344 -318.70800781249994 L 341.75982666015625 -319.08898925781244 L 342.0277404785156 -319.4880065917968 L 342.1130065917969 -319.61499023437494 L 342.63360595703125 -320.5650024414062 L 342.63800048828125 -320.57299804687494 L 343.072998046875 -321.5750122070312 L 343.4150085449219 -322.6119995117187 L 343.64044189453125 -323.58401489257807 L 343.6619873046875 -323.67700195312494 L 343.7413330078125 -324.2529907226562 L 343.8110046386719 -324.7590026855468 L 343.8599853515625 -325.85000610351557 L 343.8110046386719 -326.9410095214843 L 343.709228515625 -327.6799926757812 L 343.6619873046875 -328.0230102539062 L 343.4150085449219 -329.0870056152343 L 343.072998046875 -330.12499999999994 L 342.63800048828125 -331.1270141601562 L 342.2823486328125 -331.77600097656244 L 342.1130065917969 -332.08499145507807 L 341.5039978027344 -332.99099731445307 L 340.81500244140625 -333.83898925781244 L 340.0509948730469 -334.61999511718744 L 340 -334.66345214843744 L 339.9679870605469 -334.69070434570307 L 339.2200012207031 -335.32800292968744 L 338.44891357421875 -335.8720092773437 L 338.3269958496094 -335.95800781249994 L 337.3810119628906 -336.50500488281244 L 336.3890075683594 -336.9620056152343 L 335.87200927734375 -337.14587402343744 L 335.3599853515625 -337.32800292968744 L 334.302001953125 -337.59899902343744 L 333.2229919433594 -337.77200317382807 L 332.1340026855469 -337.8469848632812 L 331.7760009765625 -337.8388061523437 L 331.0409851074219 -337.8219909667968 L 329.95599365234375 -337.69799804687494 L 328.8869934082031 -337.4760131835937 L 327.8420104980469 -337.15701293945307 L 327.67999267578125 -337.0910339355468 L 326.8299865722656 -336.74499511718744 L 325.8599853515625 -336.2420043945312 L 325.2810974121094 -335.8720092773437 L 324.94000244140625 -335.6539916992187 L 324.0769958496094 -334.98400878906244 L 323.27899169921875 -334.2380065917968 L 322.552001953125 -333.42300415039057 L 321.9020080566406 -332.5450134277343 L 321.433837890625 -331.77600097656244 L 321.3340148925781 -331.6119995117187 L 320.85400390625 -330.63101196289057 L 320.4649963378906 -329.60998535156244 L 320.1700134277344 -328.55801391601557 L 320.0081481933594 -327.6799926757812 L 319.97198486328125 -327.48400878906244 L 319.87298583984375 -326.39599609374994 L 319.87298583984375 -325.30398559570307 L 319.9686279296875 -324.2529907226562 L 319.97198486328125 -324.2160034179687 L 320.0885009765625 -323.58401489257807 L 320.1700134277344 -323.14199829101557 L 320.4649963378906 -322.08999633789057 L 320.85400390625 -321.06900024414057 L 321.1006164550781 -320.5650024414062 L 321.3340148925781 -320.08801269531244 L 321.69927978515625 -319.4880065917968 L 321.9020080566406 -319.1549987792968 L 321.95086669921875 -319.08898925781244 L 322.552001953125 -318.27700805664057 L 323.27899169921875 -317.4620056152343 L 324.0769958496094 -316.7160034179687 L 324.94000244140625 -316.0459899902343 L 325.8599853515625 -315.45800781249994 L 325.9872741699219 -315.39199829101557 L 326.8299865722656 -314.95498657226557 M 311.8450012207031 -318.1010131835937 L 312.53399658203125 -318.94799804687494 L 312.628662109375 -319.08898925781244 L 312.8965759277344 -319.4880065917968 L 313.14300537109375 -319.85501098632807 L 313.5321044921875 -320.5650024414062 L 313.6679992675781 -320.81298828124994 L 314.1029968261719 -321.8150024414062 L 314.44500732421875 -322.8519897460937 L 314.6147766113281 -323.58401489257807 L 314.6919860839844 -323.91699218749994 L 314.73828125 -324.2529907226562 L 314.84100341796875 -324.9989929199218 L 314.8900146484375 -326.08999633789057 L 314.84100341796875 -327.1809997558593 L 314.77227783203125 -327.6799926757812 L 314.6919860839844 -328.2630004882812 L 314.44500732421875 -329.3269958496093 L 314.1029968261719 -330.36499023437494 L 313.6679992675781 -331.3670043945312 L 313.44384765625 -331.77600097656244 L 313.14300537109375 -332.3250122070312 L 312.53399658203125 -333.23098754882807 L 311.8450012207031 -334.07901000976557 L 311.2959899902344 -334.6402282714843 L 311.08099365234375 -334.85998535156244 L 310.25 -335.56799316406244 L 309.819091796875 -335.8720092773437 L 309.35699462890625 -336.19799804687494 L 308.4110107421875 -336.74499511718744 L 307.41900634765625 -337.2019958496093 L 307.20001220703125 -337.27990722656244 L 306.3900146484375 -337.56799316406244 L 305.3320007324219 -337.83898925781244 L 304.25299072265625 -338.01199340820307 L 303.16400146484375 -338.0870056152343 L 303.10400390625 -338.0856323242187 L 302.0710144042969 -338.06201171874994 L 300.9859924316406 -337.93798828124994 L 299.9169921875 -337.7160034179687 L 299.00799560546875 -337.43850708007807 L 298.87200927734375 -337.39700317382807 L 297.8599853515625 -336.98498535156244 L 296.8900146484375 -336.4819946289062 L 295.9700012207031 -335.8940124511718 L 295.941650390625 -335.8720092773437 L 295.10699462890625 -335.22399902343744 L 294.9119873046875 -335.0417175292968 L 294.3089904785156 -334.4779968261718 L 293.5820007324219 -333.66299438476557 L 292.9320068359375 -332.7850036621093 L 292.364013671875 -331.8519897460937 L 292.3268127441406 -331.77600097656244 L 291.8840026855469 -330.87100219726557 L 291.4949951171875 -329.85000610351557 L 291.20001220703125 -328.79800415039057 L 291.00201416015625 -327.72399902343744 L 290.99798583984375 -327.6799926757812 L 290.90301513671875 -326.63598632812494 L 290.90301513671875 -325.5440063476562 L 291.00201416015625 -324.4559936523437 L 291.0394287109375 -324.2529907226562 L 291.1627502441406 -323.58401489257807 L 291.20001220703125 -323.38198852539057 L 291.4949951171875 -322.32998657226557 L 291.8840026855469 -321.30899047851557 L 292.248046875 -320.5650024414062 L 292.364013671875 -320.32800292968744 L 292.8753967285156 -319.4880065917968 L 292.9320068359375 -319.3949890136718 L 293.1585388183594 -319.08898925781244 L 293.5820007324219 -318.51699829101557 L 294.3089904785156 -317.7019958496093 L 294.9119873046875 -317.13830566406244 L 295.10699462890625 -316.9559936523437 L 295.9700012207031 -316.28601074218744 L 296.8900146484375 -315.69799804687494 L 297.4801025390625 -315.39199829101557 L 297.8599853515625 -315.1950073242187 L 298.87200927734375 -314.78298950195307 L 299.9169921875 -314.46398925781244 L 300.9859924316406 -314.2420043945312 L 302.0710144042969 -314.1180114746093 L 303.10400390625 -314.09436035156244 L 303.16400146484375 -314.0929870605468 L 304.25299072265625 -314.16799926757807 L 305.3320007324219 -314.3410034179687 L 306.3900146484375 -314.6119995117187 L 307.20001220703125 -314.89932250976557 L 307.41900634765625 -314.9769897460937 L 308.31787109375 -315.39199829101557 L 308.4110107421875 -315.4349975585937 L 309.35699462890625 -315.98098754882807 L 310.25 -316.61099243164057 L 311.08099365234375 -317.3200073242187 L 311.2959899902344 -317.53979492187494 L 311.8450012207031 -318.1010131835937 M 298.572998046875 -306.43200683593744 L 297.4840087890625 -306.50698852539057 L 296.3909912109375 -306.4819946289062 L 295.3059997558594 -306.3580017089843 L 294.9119873046875 -306.2761840820312 L 294.23699951171875 -306.13598632812494 L 293.1919860839844 -305.8169860839843 L 292.17999267578125 -305.4049987792968 L 291.2099914550781 -304.90200805664057 L 290.8160095214844 -304.65017700195307 L 290.2900085449219 -304.31399536132807 L 289.427001953125 -303.6440124511718 L 288.849365234375 -303.10400390624994 L 288.6289978027344 -302.8980102539062 L 287.9020080566406 -302.08300781249994 L 287.25201416015625 -301.20498657226557 L 286.7200012207031 -300.3311462402343 L 286.6839904785156 -300.27200317382807 L 286.2040100097656 -299.2909851074218 L 286.09619140625 -299.0079956054687 L 285.81500244140625 -298.2699890136718 L 285.5199890136719 -297.2179870605468 L 285.3219909667969 -296.1440124511718 L 285.2229919433594 -295.0559997558593 L 285.2229919433594 -294.91198730468744 L 285.2229919433594 -293.96398925781244 L 285.3219909667969 -292.87600708007807 L 285.5199890136719 -291.80200195312494 L 285.7964782714844 -290.8160095214843 L 285.81500244140625 -290.74999999999994 L 286.2040100097656 -289.72900390624994 L 286.6839904785156 -288.7479858398437 L 286.7200012207031 -288.68887329101557 L 287.25201416015625 -287.8150024414062 L 287.9020080566406 -286.93701171874994 L 288.0955810546875 -286.72000122070307 L 288.6289978027344 -286.1220092773437 L 289.427001953125 -285.37600708007807 L 290.2900085449219 -284.7059936523437 L 290.8160095214844 -284.3698120117187 L 291.2099914550781 -284.1180114746093 L 292.17999267578125 -283.61499023437494 L 293.1919860839844 -283.20300292968744 L 294.23699951171875 -282.8840026855468 L 294.9119873046875 -282.7438354492187 L 295.3059997558594 -282.66198730468744 L 295.63848876953125 -282.6239929199218 L 296.3909912109375 -282.53799438476557 L 297.4840087890625 -282.5130004882812 L 298.572998046875 -282.58801269531244 L 298.79754638671875 -282.6239929199218 L 299.6520080566406 -282.76098632812494 L 300.7099914550781 -283.03201293945307 L 301.739013671875 -283.39700317382807 L 302.7309875488281 -283.85501098632807 L 303.10400390625 -284.0702819824218 L 303.677001953125 -284.40100097656244 L 304.57000732421875 -285.03100585937494 L 305.4010009765625 -285.73999023437494 L 306.1650085449219 -286.52099609374994 L 306.3268737792969 -286.72000122070307 L 306.85400390625 -287.3680114746093 L 307.4630126953125 -288.2749938964843 L 307.9880065917969 -289.2330017089843 L 308.4230041503906 -290.23498535156244 L 308.6146240234375 -290.8160095214843 L 308.7650146484375 -291.27200317382807 L 309.0119934082031 -292.3370056152343 L 309.1610107421875 -293.4190063476562 L 309.2099914550781 -294.51000976562494 L 309.19195556640625 -294.91198730468744 L 309.1610107421875 -295.6010131835937 L 309.0119934082031 -296.68301391601557 L 308.7650146484375 -297.7470092773437 L 308.4230041503906 -298.7850036621093 L 308.3262023925781 -299.0079956054687 L 307.9880065917969 -299.78698730468744 L 307.4630126953125 -300.74499511718744 L 306.85400390625 -301.65100097656244 L 306.1650085449219 -302.4989929199218 L 305.57318115234375 -303.10400390624994 L 305.4010009765625 -303.2799987792968 L 304.57000732421875 -303.9880065917968 L 303.677001953125 -304.6180114746093 L 303.10400390625 -304.9493103027343 L 302.7309875488281 -305.1650085449218 L 301.739013671875 -305.6220092773437 L 300.7099914550781 -305.9880065917968 L 299.6520080566406 -306.2590026855468 L 299.00799560546875 -306.3622436523437 L 298.572998046875 -306.43200683593744 M 280.3869934082031 -315.86099243164057 L 281.2799987792969 -316.49099731445307 L 282.1109924316406 -317.2000122070312 L 282.875 -317.98098754882807 L 283.5639953613281 -318.82800292968744 L 283.7392578125 -319.08898925781244 L 284.00714111328125 -319.4880065917968 L 284.1730041503906 -319.73498535156244 L 284.62786865234375 -320.5650024414062 L 284.697998046875 -320.69299316406244 L 285.13299560546875 -321.6950073242187 L 285.4750061035156 -322.7319946289062 L 285.672607421875 -323.58401489257807 L 285.72198486328125 -323.79699707031244 L 285.7847900390625 -324.2529907226562 L 285.8710021972656 -324.8789978027343 L 285.9200134277344 -325.97000122070307 L 285.8710021972656 -327.0610046386718 L 285.7857666015625 -327.6799926757812 L 285.72198486328125 -328.1430053710937 L 285.4750061035156 -329.2070007324218 L 285.13299560546875 -330.24499511718744 L 284.697998046875 -331.2470092773437 L 284.4081115722656 -331.77600097656244 L 284.1730041503906 -332.20498657226557 L 283.5639953613281 -333.11099243164057 L 282.875 -333.95901489257807 L 282.1109924316406 -334.73999023437494 L 281.2799987792969 -335.44799804687494 L 280.6789855957031 -335.8720092773437 L 280.3869934082031 -336.07800292968744 L 279.4410095214844 -336.62499999999994 L 278.52801513671875 -337.0455932617187 L 278.4490051269531 -337.0820007324218 L 277.4200134277344 -337.44799804687494 L 276.36199951171875 -337.71899414062494 L 275.2829895019531 -337.89199829101557 L 274.4320068359375 -337.9506225585937 L 274.1940002441406 -337.9670104980468 L 273.10101318359375 -337.9419860839843 L 272.0159912109375 -337.81799316406244 L 270.9469909667969 -337.5960083007812 L 270.33599853515625 -337.4094848632812 L 269.9020080566406 -337.27700805664057 L 268.8900146484375 -336.86499023437494 L 267.9200134277344 -336.3619995117187 L 267.1533203125 -335.8720092773437 L 267 -335.7739868164062 L 266.1369934082031 -335.10400390624994 L 265.3389892578125 -334.3580017089843 L 264.61199951171875 -333.54299926757807 L 263.9620056152344 -332.6650085449218 L 263.4207763671875 -331.77600097656244 L 263.3940124511719 -331.7319946289062 L 262.91400146484375 -330.75100708007807 L 262.6545715332031 -330.07009887695307 L 262.59368896484375 -329.9102478027343 L 262.5609130859375 -329.82424926757807 L 262.5588073730469 -329.81872558593744 L 262.55615234375 -329.8117370605468 L 262.55010986328125 -329.79589843749994 L 262.5249938964844 -329.73001098632807 L 262.2300109863281 -328.67800903320307 L 262.1440124511719 -328.2115173339843 L 262.0460205078125 -327.6799926757812 L 262.0320129394531 -327.60400390624994 L 261.9993591308594 -327.2452087402343 L 261.99920654296875 -327.24368286132807 L 261.9958801269531 -327.2070007324218 L 261.99505615234375 -327.19799804687494 L 261.9942321777344 -327.18899536132807 L 261.94573974609375 -326.65600585937494 L 261.9330139160156 -326.51599121093744 L 261.9330139160156 -325.63198852539057 L 261.9330139160156 -325.4240112304687 L 261.970703125 -325.0095825195312 L 261.9707336425781 -325.00930786132807 L 261.971435546875 -325.00173950195307 L 261.9745788574219 -324.96707153320307 L 261.9821472167969 -324.8838806152343 L 261.9972839355469 -324.71743774414057 L 262.02581787109375 -324.40405273437494 L 262.0320129394531 -324.3359985351562 L 262.04730224609375 -324.2529907226562 L 262.1440124511719 -323.7284851074218 L 262.1706237792969 -323.58401489257807 L 262.2300109863281 -323.26199340820307 L 262.4598083496094 -322.4424743652343 L 262.4702453613281 -322.4052124023437 L 262.4765625 -322.38269042968744 L 262.5006103515625 -322.29699707031244 L 262.5161437988281 -322.2415466308593 L 262.5249938964844 -322.20999145507807 L 262.5599060058594 -322.1183776855468 L 262.59515380859375 -322.0258483886718 L 262.6585388183594 -321.85952758789057 L 262.7085266113281 -321.72827148437494 L 262.7993469238281 -321.48989868164057 L 262.87255859375 -321.29776000976557 L 262.91400146484375 -321.18899536132807 L 263.0040283203125 -321.00500488281244 L 263.2193298339844 -320.5650024414062 L 263.3940124511719 -320.20800781249994 L 263.83233642578125 -319.4880065917968 L 263.9620056152344 -319.2749938964843 L 264.0997009277344 -319.08898925781244 L 264.61199951171875 -318.39700317382807 L 265.3389892578125 -317.5820007324218 L 266.1369934082031 -316.8359985351562 L 267 -316.1659851074218 L 267.9200134277344 -315.57800292968744 L 268.2786865234375 -315.39199829101557 L 268.8900146484375 -315.0750122070312 L 269.9020080566406 -314.66299438476557 L 270.33599853515625 -314.53051757812494 L 270.9469909667969 -314.34399414062494 L 272.0159912109375 -314.1220092773437 L 273.10101318359375 -313.9979858398437 L 274.1940002441406 -313.9729919433593 L 274.4320068359375 -313.98937988281244 L 275.2829895019531 -314.04800415039057 L 276.36199951171875 -314.2210083007812 L 277.4200134277344 -314.4920043945312 L 278.4490051269531 -314.8569946289062 L 278.52801513671875 -314.89346313476557 L 279.4410095214844 -315.3150024414062 L 279.57440185546875 -315.39199829101557 L 280.3869934082031 -315.86099243164057 M 279.13800048828125 -299.78698730468744 L 278.6130065917969 -300.74499511718744 L 278.52801513671875 -300.87145996093744 L 278.0039978027344 -301.65100097656244 L 277.31500244140625 -302.4989929199218 L 276.7231750488281 -303.10400390624994 L 276.5509948730469 -303.2799987792968 L 275.7200012207031 -303.9880065917968 L 274.8269958496094 -304.6180114746093 L 273.8810119628906 -305.1650085449218 L 272.8890075683594 -305.6220092773437 L 271.8599853515625 -305.9880065917968 L 270.802001953125 -306.2590026855468 L 270.33599853515625 -306.3337097167968 L 269.7229919433594 -306.43200683593744 L 268.6340026855469 -306.50698852539057 L 267.5409851074219 -306.4819946289062 L 266.45599365234375 -306.3580017089843 L 266.239990234375 -306.31314086914057 L 265.3869934082031 -306.13598632812494 L 264.3420104980469 -305.8169860839843 L 263.3299865722656 -305.4049987792968 L 262.3599853515625 -304.90200805664057 L 262.1440124511719 -304.76394653320307 L 261.44000244140625 -304.31399536132807 L 260.5769958496094 -303.6440124511718 L 259.9993591308594 -303.10400390624994 L 259.77899169921875 -302.8980102539062 L 259.052001953125 -302.08300781249994 L 258.4020080566406 -301.20498657226557 L 257.8340148925781 -300.27200317382807 L 257.35400390625 -299.2909851074218 L 257.2461853027344 -299.0079956054687 L 256.9649963378906 -298.2699890136718 L 256.6700134277344 -297.2179870605468 L 256.47198486328125 -296.1440124511718 L 256.37298583984375 -295.0559997558593 L 256.37298583984375 -294.91198730468744 L 256.37298583984375 -293.96398925781244 L 256.47198486328125 -292.87600708007807 L 256.6700134277344 -291.80200195312494 L 256.9465026855469 -290.8160095214843 L 256.9649963378906 -290.74999999999994 L 257.35400390625 -289.72900390624994 L 257.8340148925781 -288.7479858398437 L 258.4020080566406 -287.8150024414062 L 259.052001953125 -286.93701171874994 L 259.2455749511719 -286.72000122070307 L 259.77899169921875 -286.1220092773437 L 260.5769958496094 -285.37600708007807 L 261.44000244140625 -284.7059936523437 L 262.1440124511719 -284.2560424804687 L 262.3599853515625 -284.1180114746093 L 263.3299865722656 -283.61499023437494 L 264.3420104980469 -283.20300292968744 L 265.3869934082031 -282.8840026855468 L 266.45599365234375 -282.66198730468744 L 266.78851318359375 -282.6239929199218 L 267.5409851074219 -282.53799438476557 L 268.6340026855469 -282.5130004882812 L 269.7229919433594 -282.58801269531244 L 269.9475402832031 -282.6239929199218 L 270.33599853515625 -282.68627929687494 L 270.802001953125 -282.76098632812494 L 271.8599853515625 -283.03201293945307 L 272.8890075683594 -283.39700317382807 L 273.8810119628906 -283.85501098632807 L 274.4320068359375 -284.17300415039057 L 274.8269958496094 -284.40100097656244 L 275.7200012207031 -285.03100585937494 L 276.5509948730469 -285.73999023437494 L 277.31500244140625 -286.52099609374994 L 277.47686767578125 -286.72000122070307 L 278.0039978027344 -287.3680114746093 L 278.52801513671875 -288.1484069824218 L 278.6130065917969 -288.2749938964843 L 279.13800048828125 -289.2330017089843 L 279.572998046875 -290.23498535156244 L 279.7646179199219 -290.8160095214843 L 279.9150085449219 -291.27200317382807 L 280.1619873046875 -292.3370056152343 L 280.3110046386719 -293.4190063476562 L 280.3599853515625 -294.51000976562494 L 280.3419494628906 -294.91198730468744 L 280.3110046386719 -295.6010131835937 L 280.1619873046875 -296.68301391601557 L 279.9150085449219 -297.7470092773437 L 279.572998046875 -298.7850036621093 L 279.4761962890625 -299.0079956054687 L 279.13800048828125 -299.78698730468744 M 339.99798583984375 -236.417007446289 L 340 -236.403091430664 L 340 -236.5440063476562 L 340 -236.72489929199213 L 339.99798583984375 -236.7109985351562 L 339.989990234375 -236.56399536132807 L 339.9910888671875 -236.5440063476562 L 339.99798583984375 -236.417007446289 M 259.1619873046875 -316.6130065917968 L 258.9150085449219 -317.67700195312494 L 258.572998046875 -318.71499633789057 L 258.41064453125 -319.08898925781244 L 258.2374267578125 -319.4880065917968 L 258.13800048828125 -319.7170104980468 L 257.67327880859375 -320.5650024414062 L 257.6130065917969 -320.6749877929687 L 257.0039978027344 -321.5809936523437 L 256.4443054199219 -322.2698669433593 L 256.31500244140625 -322.42898559570307 L 255.86038208007812 -322.8937377929687 L 255.55099487304688 -323.20999145507807 L 255.11203002929688 -323.58401489257807 L 254.9370574951172 -323.73306274414057 L 254.72000122070312 -323.91799926757807 L 254.24514770507812 -324.2529907226562 L 253.95199584960938 -324.4598083496093 L 253.82699584960938 -324.54800415039057 L 252.88099670410156 -325.09500122070307 L 251.88900756835938 -325.55200195312494 L 251.66407775878906 -325.63198852539057 L 251 -325.86819458007807 L 250.86000061035156 -325.91799926757807 L 250.8060760498047 -325.9318237304687 L 250.53274536132812 -326.00183105468744 L 250.34495544433594 -326.04992675781244 L 250.26205444335938 -326.07116699218744 L 249.8560028076172 -326.17517089843744 L 249.802001953125 -326.18899536132807 L 248.72300720214844 -326.3619995117187 L 247.63400268554688 -326.43701171874994 L 246.76199340820312 -326.4170532226562 L 246.59300231933594 -326.4131774902343 L 246.54100036621094 -326.41198730468744 L 246.33099365234375 -326.3880004882812 L 246.174560546875 -326.37011718749994 L 246.1699981689453 -326.3695983886718 L 246.13038635253906 -326.3650817871093 L 246.11761474609375 -326.3636169433593 L 246.1147003173828 -326.36328124999994 L 246 -326.3501586914062 L 245.83155822753906 -326.33093261718744 L 245.82858276367188 -326.33056640624994 L 245.8221435546875 -326.32983398437494 L 245.81246948242188 -326.32873535156244 L 245.75999450683594 -326.32275390624994 L 245.74862670898438 -326.32144165039057 L 245.7340087890625 -326.3197631835937 L 245.7155303955078 -326.31765747070307 L 245.6992645263672 -326.31579589843744 L 245.6791229248047 -326.31350708007807 L 245.65798950195312 -326.3110961914062 L 245.63690185546875 -326.3086853027343 L 245.61436462402344 -326.3060913085937 L 245.5906524658203 -326.30337524414057 L 245.56527709960938 -326.3004760742187 L 245.45599365234375 -326.28799438476557 L 245.44015502929688 -326.28469848632807 L 245.3639373779297 -326.2688903808593 L 245.3597412109375 -326.2680053710937 L 244.8158416748047 -326.15505981445307 L 244.81231689453125 -326.15432739257807 L 244.73599243164062 -326.1384887695312 L 244.72125244140625 -326.13540649414057 L 244.38699340820312 -326.0660095214843 L 243.71200561523438 -325.8599548339843 L 243.50192260742188 -325.79580688476557 L 243.3876495361328 -325.7609252929687 L 243.3419952392578 -325.7470092773437 L 243.3246612548828 -325.7399291992187 L 243.29837036132812 -325.72924804687494 L 243.28956604003906 -325.7256469726562 L 243.0595245361328 -325.63198852539057 L 242.3300018310547 -325.33499145507807 L 241.91983032226562 -325.12231445312494 L 241.9176788330078 -325.1211853027343 L 241.90476989746094 -325.11450195312494 L 241.66400146484375 -324.98965454101557 L 241.36000061035156 -324.8320007324218 L 241.21627807617188 -324.74014282226557 L 241.162841796875 -324.7059936523437 L 241.13278198242188 -324.68676757812494 L 241.11273193359375 -324.67398071289057 L 241.10450744628906 -324.66870117187494 L 240.90109252929688 -324.53869628906244 L 240.45408630371094 -324.2529907226562 L 240.44000244140625 -324.2439880371093 L 239.61599731445312 -323.60427856445307 L 239.58987426757812 -323.58401489257807 L 239.57699584960938 -323.57400512695307 L 239.50775146484375 -323.50927734374994 L 239.24293518066406 -323.2616882324218 L 239.24205017089844 -323.26089477539057 L 238.90028381347656 -322.9413757324218 L 238.7790069580078 -322.82800292968744 L 238.66905212402344 -322.70474243164057 L 238.56112670898438 -322.58374023437494 L 238.53993225097656 -322.5599975585937 L 238.4586639404297 -322.46890258789057 L 238.052001953125 -322.0130004882812 L 237.69886779785156 -321.53601074218744 L 237.5679931640625 -321.3592224121093 L 237.40199279785156 -321.13500976562494 L 237.0609893798828 -320.57485961914057 L 237.05374145507812 -320.5629577636718 L 237.03848266601562 -320.53787231445307 L 237.01419067382812 -320.4979858398437 L 236.83399963378906 -320.2019958496093 L 236.48464965820312 -319.4880065917968 L 236.35400390625 -319.2210083007812 L 235.96499633789062 -318.2000122070312 L 235.93487548828125 -318.0925903320312 L 235.90887451171875 -317.9998474121093 L 235.88917541503906 -317.92959594726557 L 235.87692260742188 -317.88589477539057 L 235.8697509765625 -317.86035156249994 L 235.86900329589844 -317.85766601562494 L 235.7518768310547 -317.4400024414062 L 235.6699981689453 -317.1480102539062 L 235.53504943847656 -316.4159851074218 L 235.52000427246094 -316.33435058593744 L 235.4720001220703 -316.07400512695307 L 235.40994262695312 -315.39199829101557 L 235.3730010986328 -314.98599243164057 L 235.3730010986328 -313.8940124511718 L 235.4230499267578 -313.34399414062494 L 235.4720001220703 -312.8059997558593 L 235.52000427246094 -312.5456237792968 L 235.5299835205078 -312.49145507812494 L 235.5335693359375 -312.47207641601557 L 235.54225158691406 -312.4248962402343 L 235.55503845214844 -312.35559082031244 L 235.5615997314453 -312.3200073242187 L 235.6699981689453 -311.7319946289062 L 235.79226684570312 -311.2959899902343 L 235.96499633789062 -310.6799926757812 L 236.35400390625 -309.6589965820312 L 236.51837158203125 -309.3230590820312 L 236.5550994873047 -309.2479858398437 L 236.83399963378906 -308.67800903320307 L 237.40199279785156 -307.74499511718744 L 237.5679931640625 -307.52078247070307 L 237.80548095703125 -307.2000122070312 L 238.052001953125 -306.8670043945312 L 238.1324005126953 -306.77685546874994 L 238.1341552734375 -306.77490234374994 L 238.14625549316406 -306.76135253906244 L 238.7790069580078 -306.05200195312494 L 239.57699584960938 -305.3059997558593 L 239.61599731445312 -305.2757263183593 L 239.77536010742188 -305.15200805664057 L 240.44000244140625 -304.63598632812494 L 241.36000061035156 -304.04800415039057 L 241.66400146484375 -303.8903503417968 L 242.3300018310547 -303.5450134277343 L 243.3419952392578 -303.1329956054687 L 243.43699645996094 -303.10400390624994 L 243.71200561523438 -303.02005004882807 L 244.38699340820312 -302.81399536132807 L 245.45599365234375 -302.5920104980468 L 245.75999450683594 -302.55725097656244 L 246 -302.52981567382807 L 246.1699981689453 -302.51040649414057 L 246.54100036621094 -302.4679870605468 L 246.59300231933594 -302.46679687499994 L 246.76199340820312 -302.4629516601562 L 247.63400268554688 -302.44299316406244 L 248.72300720214844 -302.5180053710937 L 249.802001953125 -302.6910095214843 L 250.86000061035156 -302.9620056152343 L 251 -303.0116577148437 L 251.2603302001953 -303.10400390624994 L 251.88900756835938 -303.3269958496093 L 252.88099670410156 -303.7850036621093 L 253.82699584960938 -304.3309936523437 L 253.95199584960938 -304.41918945312494 L 254.72000122070312 -304.9609985351562 L 255.55099487304688 -305.6700134277343 L 256.31500244140625 -306.4509887695312 L 256.9242858886719 -307.2000122070312 L 257.0039978027344 -307.29800415039057 L 257.6130065917969 -308.20498657226557 L 258.13800048828125 -309.16299438476557 L 258.572998046875 -310.1650085449218 L 258.9150085449219 -311.2019958496093 L 258.9367980957031 -311.2959899902343 L 259.1619873046875 -312.26699829101557 L 259.3110046386719 -313.34899902343744 L 259.3599853515625 -314.4400024414062 L 259.3172302246094 -315.39199829101557 L 259.3110046386719 -315.53100585937494 L 259.1619873046875 -316.6130065917968 M 252.96299743652344 -287.6749877929687 L 252.5279998779297 -288.67700195312494 L 252.0030059814453 -289.63500976562494 L 251.3939971923828 -290.5409851074218 L 251.17056274414062 -290.8160095214843 L 251 -291.02590942382807 L 250.7050018310547 -291.3890075683593 L 249.9409942626953 -292.1700134277343 L 249.11000061035156 -292.8779907226562 L 248.2169952392578 -293.5079956054687 L 247.27099609375 -294.0549926757812 L 246.76199340820312 -294.2894897460937 L 246.7194061279297 -294.30911254882807 L 246.533203125 -294.39489746093744 L 246.4208526611328 -294.44665527343744 L 246.38319396972656 -294.46398925781244 L 246.35931396484375 -294.47500610351557 L 246.32147216796875 -294.49243164062494 L 246.3065185546875 -294.4993286132812 L 246.30262756347656 -294.50112915039057 L 246.2790069580078 -294.51199340820307 L 246.1699981689453 -294.55078124999994 L 246 -294.61123657226557 L 245.98379516601562 -294.6170043945312 L 245.75999450683594 -294.6965942382812 L 245.5759735107422 -294.7620544433593 L 245.5698699951172 -294.7642211914062 L 245.54872131347656 -294.77175903320307 L 245.50794982910156 -294.78625488281244 L 245.4315643310547 -294.8134155273437 L 245.25 -294.8779907226562 L 245.1172637939453 -294.91198730468744 L 244.19200134277344 -295.1489868164062 L 243.71200561523438 -295.22595214843744 L 243.11300659179688 -295.3219909667968 L 242.0240020751953 -295.39700317382807 L 241.66400146484375 -295.3887634277343 L 240.93099975585938 -295.3720092773437 L 239.8459930419922 -295.2479858398437 L 239.61599731445312 -295.20022583007807 L 238.77699279785156 -295.02600097656244 L 238.5919952392578 -294.96951293945307 L 238.40354919433594 -294.91198730468744 L 237.73199462890625 -294.7070007324218 L 237.5679931640625 -294.6402282714843 L 237.51092529296875 -294.6170043945312 L 236.72000122070312 -294.2950134277343 L 235.75 -293.79199218749994 L 235.52000427246094 -293.6449890136718 L 235.05799865722656 -293.34973144531244 L 234.8300018310547 -293.20401000976557 L 234.6805877685547 -293.08801269531244 L 233.9669952392578 -292.5339965820312 L 233.90602111816406 -292.4769897460937 L 233.4720001220703 -292.0712585449218 L 233.16900634765625 -291.78799438476557 L 232.44200134277344 -290.9729919433593 L 232.32577514648438 -290.8160095214843 L 231.79200744628906 -290.09500122070307 L 231.2239990234375 -289.16198730468744 L 230.74400329589844 -288.1809997558593 L 230.35499572753906 -287.1600036621093 L 230.2316131591797 -286.72000122070307 L 230.05999755859375 -286.1080017089843 L 229.86199951171875 -285.0339965820312 L 229.76300048828125 -283.9460144042968 L 229.76300048828125 -282.85400390624994 L 229.783935546875 -282.6239929199218 L 229.86199951171875 -281.76599121093744 L 230.05999755859375 -280.6919860839843 L 230.35499572753906 -279.64001464843744 L 230.74400329589844 -278.6189880371093 L 230.7885284423828 -278.5280151367187 L 231.2239990234375 -277.6380004882812 L 231.79200744628906 -276.70498657226557 L 232.44200134277344 -275.8269958496093 L 233.16900634765625 -275.01199340820307 L 233.7894287109375 -274.43200683593744 L 233.9669952392578 -274.26599121093744 L 234.8300018310547 -273.5960083007812 L 235.75 -273.0079956054687 L 236.72000122070312 -272.50500488281244 L 237.5679931640625 -272.1597595214843 L 237.73199462890625 -272.0929870605468 L 238.77699279785156 -271.7739868164062 L 239.8459930419922 -271.55200195312494 L 240.93099975585938 -271.42800903320307 L 241.66400146484375 -271.4112243652343 L 242.0240020751953 -271.4030151367187 L 243.11300659179688 -271.4779968261718 L 244.19200134277344 -271.65100097656244 L 245.25 -271.92199707031244 L 245.75999450683594 -272.10290527343744 L 246 -272.1880493164062 L 246.1699981689453 -272.24832153320307 L 246.2790069580078 -272.28698730468744 L 246.76199340820312 -272.51000976562494 L 247.27099609375 -272.74499511718744 L 248.2169952392578 -273.2909851074218 L 249.11000061035156 -273.9209899902343 L 249.70892333984375 -274.43200683593744 L 249.9409942626953 -274.63000488281244 L 250.7050018310547 -275.41101074218744 L 251 -275.7736511230468 L 251.3939971923828 -276.2579956054687 L 252.0030059814453 -277.1650085449218 L 252.5279998779297 -278.1229858398437 L 252.70382690429688 -278.5280151367187 L 252.96299743652344 -279.12499999999994 L 253.30499267578125 -280.16198730468744 L 253.552001953125 -281.2269897460937 L 253.7010040283203 -282.30899047851557 L 253.71514892578125 -282.6239929199218 L 253.75 -283.3999938964843 L 253.7010040283203 -284.49099731445307 L 253.552001953125 -285.57299804687494 L 253.30499267578125 -286.63699340820307 L 253.27764892578125 -286.72000122070307 L 252.96299743652344 -287.6749877929687 M 146.4510040283203 -342.9679870605468 L 146.41697692871094 -343.0400085449218 L 146.4080047607422 -343.05899047851557 L 146.3560028076172 -343.14599609374994 L 146.29600524902344 -343.2269897460937 L 146.22799682617188 -343.30200195312494 L 146.1529998779297 -343.3689880371093 L 146.07200622558594 -343.42898559570307 L 145.98500061035156 -343.48098754882807 L 145.8939971923828 -343.5239868164062 L 145.7989959716797 -343.55801391601557 L 145.7010040283203 -343.58300781249994 L 145.6009979248047 -343.5979919433593 L 145.5 -343.6029968261718 L 145.4080047607422 -343.59838867187494 L 145.39999389648438 -343.5979919433593 L 145.3000030517578 -343.58300781249994 L 145.20199584960938 -343.55801391601557 L 145.10699462890625 -343.5239868164062 L 145.01499938964844 -343.48098754882807 L 144.9290008544922 -343.42898559570307 L 144.84800720214844 -343.3689880371093 L 144.7729949951172 -343.30200195312494 L 144.7050018310547 -343.2269897460937 L 144.64500427246094 -343.14599609374994 L 144.59300231933594 -343.05899047851557 L 144.58401489257812 -343.0400085449218 L 144.5500030517578 -342.9679870605468 L 144.51600646972656 -342.8729858398437 L 144.49099731445312 -342.77600097656244 L 144.4770050048828 -342.6759948730468 L 144.4720001220703 -342.5750122070312 L 144.4770050048828 -342.47399902343744 L 144.49099731445312 -342.37499999999994 L 144.51600646972656 -342.27700805664057 L 144.5500030517578 -342.18200683593744 L 144.59300231933594 -342.0910034179687 L 144.63783264160156 -342.01599121093744 L 144.64500427246094 -342.0039978027343 L 144.7050018310547 -341.92300415039057 L 144.7729949951172 -341.84899902343744 L 144.84800720214844 -341.78100585937494 L 144.9290008544922 -341.7210083007812 L 145.01499938964844 -341.6690063476562 L 145.10699462890625 -341.62600708007807 L 145.20199584960938 -341.5920104980468 L 145.3000030517578 -341.5669860839843 L 145.39999389648438 -341.55300903320307 L 145.4080047607422 -341.55261230468744 L 145.5 -341.54800415039057 L 145.6009979248047 -341.55300903320307 L 145.7010040283203 -341.5669860839843 L 145.7989959716797 -341.5920104980468 L 145.8939971923828 -341.62600708007807 L 145.98500061035156 -341.6690063476562 L 146.07200622558594 -341.7210083007812 L 146.1529998779297 -341.78100585937494 L 146.22799682617188 -341.84899902343744 L 146.29600524902344 -341.92300415039057 L 146.3560028076172 -342.0039978027343 L 146.36317443847656 -342.01599121093744 L 146.4080047607422 -342.0910034179687 L 146.4510040283203 -342.18200683593744 L 146.48500061035156 -342.27700805664057 L 146.50900268554688 -342.37499999999994 L 146.5240020751953 -342.47399902343744 L 146.5290069580078 -342.5750122070312 L 146.5240020751953 -342.6759948730468 L 146.50900268554688 -342.77600097656244 L 146.48500061035156 -342.8729858398437 L 146.4510040283203 -342.9679870605468 M 148.1439971923828 -322.8880004882812 L 147.45599365234375 -322.11672973632807 L 147.41700744628906 -322.07299804687494 L 146.76699829101562 -321.1950073242187 L 146.19900512695312 -320.26199340820307 L 145.82028198242188 -319.4880065917968 L 145.718994140625 -319.28100585937494 L 145.3300018310547 -318.26000976562494 L 145.03500366210938 -317.20800781249994 L 144.83700561523438 -316.1340026855468 L 144.7694854736328 -315.39199829101557 L 144.73800659179688 -315.0459899902343 L 144.73800659179688 -313.95401000976557 L 144.83700561523438 -312.86599731445307 L 145.03500366210938 -311.79199218749994 L 145.17408752441406 -311.2959899902343 L 145.3300018310547 -310.73999023437494 L 145.718994140625 -309.71899414062494 L 146.19900512695312 -308.7380065917968 L 146.76699829101562 -307.8049926757812 L 147.41700744628906 -306.92700195312494 L 147.45599365234375 -306.8832702636718 L 148.1439971923828 -306.1119995117187 L 148.94200134277344 -305.36599731445307 L 149.75999450683594 -304.7309265136718 L 149.80499267578125 -304.6960144042968 L 150.72500610351562 -304.1080017089843 L 151.69500732421875 -303.60501098632807 L 152.70700073242188 -303.19299316406244 L 152.99855041503906 -303.10400390624994 L 153.7519989013672 -302.8739929199218 L 154.8209991455078 -302.65200805664057 L 155.6479949951172 -302.55749511718744 L 155.906005859375 -302.5280151367187 L 156.99899291992188 -302.5029907226562 L 158.08799743652344 -302.57800292968744 L 159.16700744628906 -302.75100708007807 L 160.22500610351562 -303.02200317382807 L 160.4561767578125 -303.10400390624994 L 161.25399780273438 -303.38699340820307 L 162.24600219726562 -303.84500122070307 L 163.19200134277344 -304.39099121093744 L 163.83999633789062 -304.84814453124994 L 164.0850067138672 -305.02099609374994 L 164.91600036621094 -305.73001098632807 L 165.67999267578125 -306.51098632812494 L 166.240478515625 -307.2000122070312 L 166.36900329589844 -307.3580017089843 L 166.97799682617188 -308.26501464843744 L 167.5030059814453 -309.2229919433593 L 167.93800354003906 -310.22500610351557 L 168.27999877929688 -311.26199340820307 L 168.2878875732422 -311.2959899902343 L 168.52699279785156 -312.3269958496093 L 168.67599487304688 -313.4089965820312 L 168.72500610351562 -314.49999999999994 L 168.6849365234375 -315.39199829101557 L 168.67599487304688 -315.5910034179687 L 168.52699279785156 -316.67300415039057 L 168.27999877929688 -317.7369995117187 L 167.93800354003906 -318.7749938964843 L 167.8016815185547 -319.08898925781244 L 167.6284637451172 -319.4880065917968 L 167.5030059814453 -319.77700805664057 L 167.0711669921875 -320.5650024414062 L 166.97799682617188 -320.73498535156244 L 166.36900329589844 -321.64099121093744 L 165.67999267578125 -322.48901367187494 L 164.91600036621094 -323.2699890136718 L 164.54745483398438 -323.58401489257807 L 164.0850067138672 -323.9779968261718 L 164.05630493164062 -323.9982604980468 L 163.83999633789062 -324.1508483886718 L 163.69520568847656 -324.2529907226562 L 163.65469360351562 -324.2815856933593 L 163.64036560058594 -324.2916870117187 L 163.63328552246094 -324.2966918945312 L 163.62608337402344 -324.30175781249994 L 163.19200134277344 -324.6080017089843 L 162.24600219726562 -325.1549987792968 L 161.68814086914062 -325.41198730468744 L 161.3357391357422 -325.57434082031244 L 161.25399780273438 -325.6119995117187 L 161.19776916503906 -325.63198852539057 L 160.7886962890625 -325.77749633789057 L 160.77166748046875 -325.78356933593744 L 160.75831604003906 -325.7882995605468 L 160.73455810546875 -325.79675292968744 L 160.72171020507812 -325.8013305664062 L 160.22500610351562 -325.9779968261718 L 159.74400329589844 -326.10119628906244 L 159.16700744628906 -326.2489929199218 L 158.72000122070312 -326.32067871093744 L 158.08799743652344 -326.42199707031244 L 157.84388732910156 -326.4388122558593 L 157.84254455566406 -326.4389038085937 L 157.8262939453125 -326.4400329589843 L 157.79881286621094 -326.44192504882807 L 157.78125 -326.44311523437494 L 157.7062530517578 -326.4483032226562 L 157.5560760498047 -326.45864868164057 L 157.2792205810547 -326.47769165039057 L 156.99899291992188 -326.4970092773437 L 156.75999450683594 -326.4915466308593 L 155.906005859375 -326.4719848632812 L 155.6479949951172 -326.44250488281244 L 154.8209991455078 -326.3479919433593 L 154.2877197265625 -326.2372436523437 L 154.27566528320312 -326.23474121093744 L 154.27200317382812 -326.2339782714843 L 154.26565551757812 -326.23266601562494 L 154.20655822753906 -326.2203979492187 L 153.7519989013672 -326.12600708007807 L 152.70700073242188 -325.80700683593744 L 152.2771453857422 -325.63198852539057 L 151.75999450683594 -325.4214477539062 L 151.69500732421875 -325.3949890136718 L 151.552001953125 -325.32083129882807 L 150.72500610351562 -324.89199829101557 L 149.80499267578125 -324.30398559570307 L 149.75999450683594 -324.26907348632807 L 148.94200134277344 -323.6340026855468 L 148.88851928710938 -323.58401489257807 L 148.1439971923828 -322.8880004882812 M 145.42799377441406 -235.52000427246088 L 145.5290069580078 -235.5160064697265 L 145.6300048828125 -235.52000427246088 L 145.72999572753906 -235.53500366210932 L 145.82699584960938 -235.5599975585937 L 145.9219970703125 -235.59399414062494 L 146.01300048828125 -235.63699340820307 L 146.10000610351562 -235.688003540039 L 146.18099975585938 -235.74800109863276 L 146.25599670410156 -235.81599426269526 L 146.322998046875 -235.8910064697265 L 146.38299560546875 -235.97200012207026 L 146.4320068359375 -236.0530395507812 L 146.43499755859375 -236.0579986572265 L 146.47799682617188 -236.14900207519526 L 146.51199340820312 -236.24400329589838 L 146.53700256347656 -236.34199523925776 L 146.552001953125 -236.44099426269526 L 146.5570068359375 -236.542007446289 L 146.55690002441406 -236.5440063476562 L 146.552001953125 -236.64199829101557 L 146.53700256347656 -236.7420043945312 L 146.51199340820312 -236.83999633789057 L 146.47799682617188 -236.93400573730463 L 146.43499755859375 -237.02499389648432 L 146.4320068359375 -237.03001403808588 L 146.38299560546875 -237.1119995117187 L 146.322998046875 -237.19299316406244 L 146.25599670410156 -237.26699829101557 L 146.18099975585938 -237.33500671386713 L 146.10000610351562 -237.39500427246088 L 146.01300048828125 -237.44700622558588 L 145.9219970703125 -237.490005493164 L 145.82699584960938 -237.52400207519526 L 145.72999572753906 -237.54800415039057 L 145.6300048828125 -237.563003540039 L 145.5290069580078 -237.56799316406244 L 145.42799377441406 -237.563003540039 L 145.4080047607422 -237.55996704101557 L 145.32899475097656 -237.54800415039057 L 145.2310028076172 -237.52400207519526 L 145.13600158691406 -237.490005493164 L 145.0449981689453 -237.44700622558588 L 144.95799255371094 -237.39500427246088 L 144.8769989013672 -237.33500671386713 L 144.80299377441406 -237.26699829101557 L 144.73500061035156 -237.19299316406244 L 144.6750030517578 -237.1119995117187 L 144.6230010986328 -237.02499389648432 L 144.5800018310547 -236.93400573730463 L 144.54600524902344 -236.83999633789057 L 144.52099609375 -236.7420043945312 L 144.5070037841797 -236.64199829101557 L 144.50210571289062 -236.5440063476562 L 144.5019989013672 -236.542007446289 L 144.5070037841797 -236.44099426269526 L 144.52099609375 -236.34199523925776 L 144.54600524902344 -236.24400329589838 L 144.5800018310547 -236.14900207519526 L 144.6230010986328 -236.0579986572265 L 144.6750030517578 -235.97200012207026 L 144.73500061035156 -235.8910064697265 L 144.80299377441406 -235.81599426269526 L 144.8769989013672 -235.74800109863276 L 144.95799255371094 -235.688003540039 L 145.0449981689453 -235.63699340820307 L 145.13600158691406 -235.59399414062494 L 145.2310028076172 -235.5599975585937 L 145.32899475097656 -235.53500366210932 L 145.4080047607422 -235.52302551269526 L 145.42799377441406 -235.52000427246088 M 221.10403442382812 -311.2959899902343 L 220.61099243164062 -311.7999877929687 L 219.77999877929688 -312.5079956054687 L 218.88699340820312 -313.1380004882812 L 217.9409942626953 -313.6849975585937 L 217.08799743652344 -314.0779724121093 L 216.94900512695312 -314.14199829101557 L 215.9199981689453 -314.5079956054687 L 214.86199951171875 -314.7789916992187 L 213.7830047607422 -314.9519958496093 L 212.99200439453125 -315.00646972656244 L 212.69400024414062 -315.02700805664057 L 211.6009979248047 -315.0020141601562 L 210.51600646972656 -314.8779907226562 L 209.44700622558594 -314.65600585937494 L 208.40199279785156 -314.3370056152343 L 207.38999938964844 -313.9249877929687 L 206.4199981689453 -313.42199707031244 L 205.5 -312.83401489257807 L 204.8000030517578 -312.29055786132807 L 204.63699340820312 -312.1640014648437 L 203.83900451660156 -311.41799926757807 L 203.7301788330078 -311.2959899902343 L 203.11199951171875 -310.6029968261718 L 202.46200561523438 -309.72500610351557 L 201.8939971923828 -308.79199218749994 L 201.41400146484375 -307.8110046386718 L 201.18121337890625 -307.2000122070312 L 201.02499389648438 -306.7900085449218 L 200.72999572753906 -305.7380065917968 L 200.53199768066406 -304.6640014648437 L 200.43299865722656 -303.5759887695312 L 200.43299865722656 -303.10400390624994 L 200.43299865722656 -302.48400878906244 L 200.53199768066406 -301.39599609374994 L 200.72999572753906 -300.3219909667968 L 201.02499389648438 -299.2699890136718 L 201.12481689453125 -299.0079956054687 L 201.41400146484375 -298.2489929199218 L 201.8939971923828 -297.2680053710937 L 202.46200561523438 -296.33499145507807 L 203.11199951171875 -295.4570007324218 L 203.59815979003906 -294.91198730468744 L 203.83900451660156 -294.64199829101557 L 204.63699340820312 -293.89599609374994 L 204.8000030517578 -293.76943969726557 L 205.5 -293.2260131835937 L 206.4199981689453 -292.6380004882812 L 207.38999938964844 -292.13500976562494 L 208.40199279785156 -291.7229919433593 L 208.89599609375 -291.5722045898437 L 209.44700622558594 -291.4039916992187 L 210.51600646972656 -291.18200683593744 L 211.6009979248047 -291.05801391601557 L 212.69400024414062 -291.03298950195307 L 212.99200439453125 -291.0535278320312 L 213.7830047607422 -291.1080017089843 L 214.86199951171875 -291.28100585937494 L 215.9199981689453 -291.55200195312494 L 216.94900512695312 -291.91699218749994 L 217.08799743652344 -291.9811706542968 L 217.9409942626953 -292.37499999999994 L 218.88699340820312 -292.9209899902343 L 219.77999877929688 -293.5509948730468 L 220.61099243164062 -294.26000976562494 L 221.1840057373047 -294.8457641601562 L 221.24880981445312 -294.91198730468744 L 221.375 -295.0409851074218 L 222.06399536132812 -295.8880004882812 L 222.67300415039062 -296.7950134277343 L 223.197998046875 -297.7529907226562 L 223.63299560546875 -298.75500488281244 L 223.71644592285156 -299.0079956054687 L 223.97500610351562 -299.79199218749994 L 224.2220001220703 -300.8569946289062 L 224.37100219726562 -301.93899536132807 L 224.4199981689453 -303.0299987792968 L 224.4166717529297 -303.10400390624994 L 224.37100219726562 -304.12100219726557 L 224.2220001220703 -305.20300292968744 L 223.97500610351562 -306.26699829101557 L 223.6676025390625 -307.2000122070312 L 223.63299560546875 -307.3049926757812 L 223.197998046875 -308.30700683593744 L 222.67300415039062 -309.26501464843744 L 222.06399536132812 -310.1709899902343 L 221.375 -311.0190124511718 L 221.1840057373047 -311.21426391601557 L 221.10403442382812 -311.2959899902343 M 197.6219940185547 -316.55300903320307 L 197.375 -317.6170043945312 L 197.0330047607422 -318.6549987792968 L 196.84458923339844 -319.08898925781244 L 196.67137145996094 -319.4880065917968 L 196.60800170898438 -319.6339721679687 L 196.59800720214844 -319.65701293945307 L 196.10040283203125 -320.5650024414062 L 196.072998046875 -320.61499023437494 L 195.46400451660156 -321.52099609374994 L 194.77499389648438 -322.3689880371093 L 194.01100158691406 -323.1499938964843 L 193.50160217285156 -323.58401489257807 L 193.17999267578125 -323.8580017089843 L 192.62010192871094 -324.2529907226562 L 192.28700256347656 -324.4880065917968 L 191.34100341796875 -325.0350036621093 L 190.3489990234375 -325.4920043945312 L 189.32000732421875 -325.8580017089843 L 188.41600036621094 -326.0895690917968 L 188.26199340820312 -326.1289978027343 L 187.18299865722656 -326.30200195312494 L 186.093994140625 -326.3770141601562 L 185.00100708007812 -326.3519897460937 L 183.91600036621094 -326.2279968261718 L 182.8470001220703 -326.00601196289057 L 181.802001953125 -325.68701171874994 L 180.7899932861328 -325.2749938964843 L 180.2239990234375 -324.9815063476562 L 179.82000732421875 -324.77200317382807 L 179.00796508789062 -324.2529907226562 L 178.89999389648438 -324.18399047851557 L 178.12716674804688 -323.58401489257807 L 178.03700256347656 -323.5140075683593 L 177.23899841308594 -322.7680053710937 L 176.51199340820312 -321.95300292968744 L 175.86199951171875 -321.0750122070312 L 175.551513671875 -320.5650024414062 L 175.29400634765625 -320.14199829101557 L 174.9739990234375 -319.4880065917968 L 174.81399536132812 -319.16101074218744 L 174.7865753173828 -319.08898925781244 L 174.4250030517578 -318.14001464843744 L 174.1300048828125 -317.08801269531244 L 173.9320068359375 -316.0140075683593 L 173.87539672851562 -315.39199829101557 L 173.83299255371094 -314.9259948730468 L 173.83299255371094 -313.83401489257807 L 173.9320068359375 -312.74600219726557 L 174.1300048828125 -311.67199707031244 L 174.23544311523438 -311.2959899902343 L 174.4250030517578 -310.61999511718744 L 174.81399536132812 -309.59899902343744 L 175.29400634765625 -308.6180114746093 L 175.86199951171875 -307.6849975585937 L 176.22105407714844 -307.2000122070312 L 176.51199340820312 -306.80700683593744 L 177.23899841308594 -305.9920043945312 L 178.03700256347656 -305.24600219726557 L 178.89999389648438 -304.5759887695312 L 179.82000732421875 -303.9880065917968 L 180.2239990234375 -303.7785034179687 L 180.7899932861328 -303.48498535156244 L 181.72586059570312 -303.10400390624994 L 181.802001953125 -303.07299804687494 L 182.8470001220703 -302.7539978027343 L 183.91600036621094 -302.53201293945307 L 185.00100708007812 -302.40798950195307 L 186.093994140625 -302.3829956054687 L 187.18299865722656 -302.45800781249994 L 188.26199340820312 -302.63101196289057 L 188.41600036621094 -302.67044067382807 L 189.32000732421875 -302.90200805664057 L 189.8894805908203 -303.10400390624994 L 190.3489990234375 -303.26699829101557 L 191.34100341796875 -303.72500610351557 L 192.28700256347656 -304.27099609374994 L 193.17999267578125 -304.90100097656244 L 194.01100158691406 -305.60998535156244 L 194.77499389648438 -306.39099121093744 L 195.43309020996094 -307.2000122070312 L 195.46400451660156 -307.2380065917968 L 196.072998046875 -308.1449890136718 L 196.59800720214844 -309.1029968261718 L 196.60800170898438 -309.1260375976562 L 197.0330047607422 -310.10501098632807 L 197.375 -311.14199829101557 L 197.4107208251953 -311.2959899902343 L 197.6219940185547 -312.2070007324218 L 197.77099609375 -313.2890014648437 L 197.82000732421875 -314.38000488281244 L 197.77455139160156 -315.39199829101557 L 197.77099609375 -315.4710083007812 L 197.6219940185547 -316.55300903320307 M 224.25100708007812 -263.8169860839843 L 223.13800048828125 -263.30899047851557 L 222.07000732421875 -262.7120056152343 L 221.22506713867188 -262.1440124511718 L 221.1840057373047 -262.1163940429687 L 221.0540008544922 -262.0289916992187 L 220.0970001220703 -261.26599121093744 L 219.20599365234375 -260.42800903320307 L 218.38600158691406 -259.5199890136718 L 217.64300537109375 -258.54699707031244 L 217.3219757080078 -258.04800415039057 L 216.9810028076172 -257.5180053710937 L 216.406005859375 -256.43798828124994 L 215.9199981689453 -255.3150024414062 L 215.5279998779297 -254.15600585937494 L 215.47695922851562 -253.95199584960932 L 215.2310028076172 -252.96899414062494 L 215.0330047607422 -251.761001586914 L 214.93299865722656 -250.542007446289 L 214.93299865722656 -249.31799316406244 L 215.0330047607422 -248.09800720214838 L 215.2310028076172 -246.8910064697265 L 215.5139923095703 -245.75999450683588 L 215.5279998779297 -245.7039947509765 L 215.9199981689453 -244.54499816894526 L 216.406005859375 -243.42199707031244 L 216.9810028076172 -242.34199523925776 L 217.41676330566406 -241.6640014648437 L 217.64300537109375 -241.31199645996088 L 218.38600158691406 -240.33999633789057 L 219.20599365234375 -239.43200683593744 L 220.0970001220703 -238.59399414062494 L 221.0540008544922 -237.8309936523437 L 221.1840057373047 -237.74360656738276 L 221.44522094726562 -237.56799316406244 L 222.07000732421875 -237.14799499511713 L 223.13800048828125 -236.55099487304682 L 224.25100708007812 -236.04299926757807 L 225.40199279785156 -235.62699890136713 L 226.58299255371094 -235.30599975585932 L 227.78599548339844 -235.08299255371088 L 228.58700561523438 -235.00073242187494 L 229.0030059814453 -234.95799255371088 L 229.37600708007812 -234.9503784179687 L 230.2259979248047 -234.9329986572265 L 231.447998046875 -235.0079956054687 L 232.65899658203125 -235.18200683593744 L 233.4720001220703 -235.36735534667963 L 233.8520050048828 -235.4539947509765 L 235.0189971923828 -235.82299804687494 L 236.15199279785156 -236.28500366210932 L 237.2429962158203 -236.8390045166015 L 237.5679931640625 -237.03842163085932 L 238.28599548339844 -237.47900390624994 L 238.40750122070312 -237.56799316406244 L 239.2729949951172 -238.20199584960932 L 240.197998046875 -239.00399780273432 L 241.0540008544922 -239.87800598144526 L 241.66400146484375 -240.61203002929682 L 241.83599853515625 -240.81900024414057 L 242.429443359375 -241.6640014648437 L 242.53900146484375 -241.8200073242187 L 243.1580047607422 -242.87600708007807 L 243.68899536132812 -243.97799682617182 L 244.1280059814453 -245.11999511718744 L 244.31607055664062 -245.75999450683588 L 244.47300720214844 -246.2940063476562 L 244.7209930419922 -247.49299621582026 L 244.8699951171875 -248.70700073242182 L 244.91697692871094 -249.85600280761713 L 244.9199981689453 -249.9299926757812 L 244.8699951171875 -251.15299987792963 L 244.7209930419922 -252.3670043945312 L 244.47300720214844 -253.5650024414062 L 244.35926818847656 -253.95199584960932 L 244.1280059814453 -254.73899841308588 L 243.68899536132812 -255.88200378417963 L 243.1580047607422 -256.98400878906244 L 242.53900146484375 -258.0400085449218 L 242.53338623046875 -258.04800415039057 L 241.83599853515625 -259.0409851074218 L 241.0540008544922 -259.9819946289062 L 240.197998046875 -260.85598754882807 L 239.2729949951172 -261.65701293945307 L 238.6090850830078 -262.1440124511718 L 238.28599548339844 -262.38101196289057 L 237.5679931640625 -262.82156372070307 L 237.2429962158203 -263.02099609374994 L 236.15199279785156 -263.57400512695307 L 235.0189971923828 -264.03698730468744 L 233.8520050048828 -264.40600585937494 L 233.4720001220703 -264.4926452636718 L 232.65899658203125 -264.67800903320307 L 231.447998046875 -264.8519897460937 L 230.2259979248047 -264.92700195312494 L 229.37600708007812 -264.9096374511718 L 229.0030059814453 -264.90200805664057 L 228.58700561523438 -264.85928344726557 L 227.78599548339844 -264.77700805664057 L 226.58299255371094 -264.55398559570307 L 225.40199279785156 -264.2330017089843 L 225.27999877929688 -264.1889038085937 L 224.25100708007812 -263.8169860839843 M 247.77200317382812 -235.77600097656244 L 247.80799865722656 -235.7438354492187 L 247.8470001220703 -235.708999633789 L 247.92799377441406 -235.64900207519526 L 248.01499938964844 -235.59700012207026 L 248.1060028076172 -235.55400085449213 L 248.2010040283203 -235.52000427246088 L 248.2989959716797 -235.49499511718744 L 248.3990020751953 -235.479995727539 L 248.5 -235.47500610351557 L 248.60000610351562 -235.479995727539 L 248.6999969482422 -235.49499511718744 L 248.79800415039062 -235.52000427246088 L 248.83200073242188 -235.5321655273437 L 248.89300537109375 -235.55400085449213 L 248.98500061035156 -235.59700012207026 L 249.0709991455078 -235.64900207519526 L 249.15199279785156 -235.708999633789 L 249.2270050048828 -235.77600097656244 L 249.2949981689453 -235.85099792480463 L 249.35499572753906 -235.93200683593744 L 249.40699768066406 -236.01899719238276 L 249.4499969482422 -236.1100006103515 L 249.48399353027344 -236.20500183105463 L 249.50900268554688 -236.30200195312494 L 249.5229949951172 -236.4019927978515 L 249.5279998779297 -236.50300598144526 L 249.52597045898438 -236.5440063476562 L 249.5229949951172 -236.60400390624994 L 249.50900268554688 -236.70300292968744 L 249.48399353027344 -236.80099487304682 L 249.4499969482422 -236.89599609374994 L 249.40699768066406 -236.9869995117187 L 249.35499572753906 -237.07400512695307 L 249.2949981689453 -237.15499877929682 L 249.2270050048828 -237.22900390624994 L 249.15199279785156 -237.29699707031244 L 249.0709991455078 -237.3569946289062 L 248.98500061035156 -237.4089965820312 L 248.89300537109375 -237.45199584960932 L 248.83200073242188 -237.47383117675776 L 248.79800415039062 -237.48599243164057 L 248.6999969482422 -237.511001586914 L 248.60000610351562 -237.52499389648432 L 248.5 -237.52999877929682 L 248.3990020751953 -237.52499389648432 L 248.2989959716797 -237.511001586914 L 248.2010040283203 -237.48599243164057 L 248.1060028076172 -237.45199584960932 L 248.01499938964844 -237.4089965820312 L 247.92799377441406 -237.3569946289062 L 247.8470001220703 -237.29699707031244 L 247.80799865722656 -237.26164245605463 L 247.77200317382812 -237.22900390624994 L 247.70399475097656 -237.15499877929682 L 247.6439971923828 -237.07400512695307 L 247.5919952392578 -236.9869995117187 L 247.5489959716797 -236.89599609374994 L 247.51499938964844 -236.80099487304682 L 247.49099731445312 -236.70300292968744 L 247.4759979248047 -236.60400390624994 L 247.4730224609375 -236.5440063476562 L 247.4709930419922 -236.50300598144526 L 247.4759979248047 -236.4019927978515 L 247.49099731445312 -236.30200195312494 L 247.51499938964844 -236.20500183105463 L 247.5489959716797 -236.1100006103515 L 247.5919952392578 -236.01899719238276 L 247.6439971923828 -235.93200683593744 L 247.70399475097656 -235.85099792480463 L 247.77200317382812 -235.77600097656244 M 247.75999450683594 -341.83300781249994 L 247.80799865722656 -341.7894897460937 L 247.8350067138672 -341.76501464843744 L 247.91600036621094 -341.70498657226557 L 248.0030059814453 -341.6539916992187 L 248.093994140625 -341.60998535156244 L 248.18899536132812 -341.5759887695312 L 248.28700256347656 -341.55200195312494 L 248.38699340820312 -341.53698730468744 L 248.48800659179688 -341.53201293945307 L 248.58900451660156 -341.53698730468744 L 248.68800354003906 -341.55200195312494 L 248.78599548339844 -341.5759887695312 L 248.83200073242188 -341.5924682617187 L 248.88099670410156 -341.60998535156244 L 248.97300720214844 -341.6539916992187 L 249.0590057373047 -341.70498657226557 L 249.13999938964844 -341.76501464843744 L 249.21499633789062 -341.83300781249994 L 249.2830047607422 -341.90798950195307 L 249.34300231933594 -341.98901367187494 L 249.3593292236328 -342.01599121093744 L 249.39500427246094 -342.0750122070312 L 249.43800354003906 -342.16699218749994 L 249.4720001220703 -342.26098632812494 L 249.4969940185547 -342.35900878906244 L 249.51199340820312 -342.45901489257807 L 249.51699829101562 -342.5599975585937 L 249.51199340820312 -342.6600036621093 L 249.4969940185547 -342.76000976562494 L 249.4720001220703 -342.8580017089843 L 249.43800354003906 -342.95300292968744 L 249.3968963623047 -343.0400085449218 L 249.39500427246094 -343.0440063476562 L 249.34300231933594 -343.13101196289057 L 249.2830047607422 -343.2120056152343 L 249.21499633789062 -343.28601074218744 L 249.13999938964844 -343.35400390624994 L 249.0590057373047 -343.4140014648437 L 248.97300720214844 -343.4660034179687 L 248.88099670410156 -343.5090026855468 L 248.83200073242188 -343.5265502929687 L 248.78599548339844 -343.54299926757807 L 248.68800354003906 -343.5669860839843 L 248.58900451660156 -343.5820007324218 L 248.48800659179688 -343.5870056152343 L 248.38699340820312 -343.5820007324218 L 248.28700256347656 -343.5669860839843 L 248.18899536132812 -343.54299926757807 L 248.093994140625 -343.5090026855468 L 248.0030059814453 -343.4660034179687 L 247.91600036621094 -343.4140014648437 L 247.8350067138672 -343.35400390624994 L 247.80799865722656 -343.3295288085937 L 247.75999450683594 -343.28601074218744 L 247.69200134277344 -343.2120056152343 L 247.6320037841797 -343.13101196289057 L 247.5800018310547 -343.0440063476562 L 247.53700256347656 -342.95300292968744 L 247.5030059814453 -342.8580017089843 L 247.47900390625 -342.76000976562494 L 247.46400451660156 -342.6600036621093 L 247.45899963378906 -342.5599975585937 L 247.46400451660156 -342.45901489257807 L 247.47900390625 -342.35900878906244 L 247.5030059814453 -342.26098632812494 L 247.53700256347656 -342.16699218749994 L 247.5800018310547 -342.0750122070312 L 247.6156768798828 -342.01599121093744 L 247.6320037841797 -341.98901367187494 L 247.69200134277344 -341.90798950195307 L 247.75999450683594 -341.83300781249994 M 341.43499755859375 -341.5459899902343 L 341.5360107421875 -341.54199218749994 L 341.635986328125 -341.5459899902343 L 341.7359924316406 -341.5610046386718 L 341.8340148925781 -341.5859985351562 L 341.9289855957031 -341.61999511718744 L 342.0159912109375 -341.66067504882807 L 342.02099609375 -341.66299438476557 L 342.10699462890625 -341.71499633789057 L 342.18798828125 -341.7749938964843 L 342.26300048828125 -341.8420104980468 L 342.33099365234375 -341.91699218749994 L 342.3909912109375 -341.9979858398437 L 342.4017639160156 -342.01599121093744 L 342.4429931640625 -342.08499145507807 L 342.4859924316406 -342.1759948730468 L 342.5199890136719 -342.27099609374994 L 342.5450134277344 -342.3689880371093 L 342.55999755859375 -342.4679870605468 L 342.5639953613281 -342.56900024414057 L 342.55999755859375 -342.6700134277343 L 342.5450134277344 -342.7690124511718 L 342.5199890136719 -342.8670043945312 L 342.4859924316406 -342.9620056152343 L 342.44915771484375 -343.0400085449218 L 342.4429931640625 -343.05300903320307 L 342.3909912109375 -343.14001464843744 L 342.33099365234375 -343.2210083007812 L 342.26300048828125 -343.2959899902343 L 342.18798828125 -343.3630065917968 L 342.10699462890625 -343.42300415039057 L 342.02099609375 -343.47500610351557 L 342.0159912109375 -343.47732543945307 L 341.9289855957031 -343.5180053710937 L 341.8340148925781 -343.55200195312494 L 341.7359924316406 -343.5769958496093 L 341.635986328125 -343.5920104980468 L 341.5360107421875 -343.5969848632812 L 341.43499755859375 -343.5920104980468 L 341.3349914550781 -343.5769958496093 L 341.23699951171875 -343.55200195312494 L 341.1419982910156 -343.5180053710937 L 341.0509948730469 -343.47500610351557 L 340.99200439453125 -343.43972778320307 L 340.9639892578125 -343.42300415039057 L 340.88299560546875 -343.3630065917968 L 340.8080139160156 -343.2959899902343 L 340.739990234375 -343.2210083007812 L 340.67999267578125 -343.14001464843744 L 340.62799072265625 -343.05300903320307 L 340.6218566894531 -343.0400085449218 L 340.5849914550781 -342.9620056152343 L 340.5509948730469 -342.8670043945312 L 340.5270080566406 -342.7690124511718 L 340.5119934082031 -342.6700134277343 L 340.5069885253906 -342.56900024414057 L 340.5119934082031 -342.4679870605468 L 340.5270080566406 -342.3689880371093 L 340.5509948730469 -342.27099609374994 L 340.5849914550781 -342.1759948730468 L 340.62799072265625 -342.08499145507807 L 340.66925048828125 -342.01599121093744 L 340.67999267578125 -341.9979858398437 L 340.739990234375 -341.91699218749994 L 340.8080139160156 -341.8420104980468 L 340.88299560546875 -341.7749938964843 L 340.9639892578125 -341.71499633789057 L 341.0509948730469 -341.66299438476557 L 341.1419982910156 -341.61999511718744 L 341.23699951171875 -341.5859985351562 L 341.3349914550781 -341.5610046386718 L 341.43499755859375 -341.5459899902343 M 340.91900634765625 -235.7140045166015 L 340.99200439453125 -235.67036437988276 L 341.0060119628906 -235.6620025634765 L 341.09698486328125 -235.61900329589838 L 341.1919860839844 -235.58500671386713 L 341.2900085449219 -235.5599975585937 L 341.3900146484375 -235.54499816894526 L 341.4909973144531 -235.53999328613276 L 341.5920104980469 -235.54499816894526 L 341.6910095214844 -235.5599975585937 L 341.78900146484375 -235.58500671386713 L 341.8840026855469 -235.61900329589838 L 341.97601318359375 -235.6620025634765 L 342.0159912109375 -235.68618774414057 L 342.06201171875 -235.7140045166015 L 342.14300537109375 -235.77400207519526 L 342.2179870605469 -235.8410034179687 L 342.2860107421875 -235.91600036621088 L 342.34600830078125 -235.99699401855463 L 342.39801025390625 -236.083999633789 L 342.4410095214844 -236.17500305175776 L 342.4750061035156 -236.27000427246088 L 342.5 -236.36799621582026 L 342.5150146484375 -236.46699523925776 L 342.518798828125 -236.5440063476562 L 342.5199890136719 -236.56799316406244 L 342.5150146484375 -236.6690063476562 L 342.5 -236.7680053710937 L 342.4750061035156 -236.86599731445307 L 342.4410095214844 -236.9609985351562 L 342.39801025390625 -237.05200195312494 L 342.34600830078125 -237.13900756835932 L 342.2860107421875 -237.22000122070307 L 342.2179870605469 -237.29499816894526 L 342.14300537109375 -237.3619995117187 L 342.06201171875 -237.42199707031244 L 342.0159912109375 -237.44981384277338 L 341.97601318359375 -237.47399902343744 L 341.8840026855469 -237.51699829101557 L 341.78900146484375 -237.55099487304682 L 341.72235107421875 -237.56799316406244 L 341.6910095214844 -237.57600402832026 L 341.5920104980469 -237.5910034179687 L 341.4909973144531 -237.59500122070307 L 341.3900146484375 -237.5910034179687 L 341.2900085449219 -237.57600402832026 L 341.2586364746094 -237.56799316406244 L 341.1919860839844 -237.55099487304682 L 341.09698486328125 -237.51699829101557 L 341.0060119628906 -237.47399902343744 L 340.99200439453125 -237.4656372070312 L 340.91900634765625 -237.42199707031244 L 340.8380126953125 -237.3619995117187 L 340.76300048828125 -237.29499816894526 L 340.69500732421875 -237.22000122070307 L 340.635009765625 -237.13900756835932 L 340.5830078125 -237.05200195312494 L 340.5400085449219 -236.9609985351562 L 340.5060119628906 -236.86599731445307 L 340.48199462890625 -236.7680053710937 L 340.4670104980469 -236.6690063476562 L 340.4620056152344 -236.56799316406244 L 340.46319580078125 -236.5440063476562 L 340.4670104980469 -236.46699523925776 L 340.48199462890625 -236.36799621582026 L 340.5060119628906 -236.27000427246088 L 340.5400085449219 -236.17500305175776 L 340.5830078125 -236.083999633789 L 340.635009765625 -235.99699401855463 L 340.69500732421875 -235.91600036621088 L 340.76300048828125 -235.8410034179687 L 340.8380126953125 -235.77400207519526 L 340.91900634765625 -235.7140045166015 z" fill="none" stroke="rgb(255,0,0)" stroke-width="0.001mm" />
</svg>